<svg xmlns="http://www.w3.org/2000/svg" viewBox="0 0 24 24" id="history">
  <path d="M12,1.25a11.133,11.133,0,0,0-1.53.11.761.761,0,0,0-.64.85.762.762,0,0,0,.75.64.34.34,0,0,0,.1-.01A9.649,9.649,0,0,1,12,2.75a.75.75,0,0,0,0-1.5ZM8.39,2.64a.759.759,0,0,0-1-.36A11.019,11.019,0,0,0,5.56,3.39a.75.75,0,0,0-.15,1.05.726.726,0,0,0,.6.3.783.783,0,0,0,.45-.15,8.717,8.717,0,0,1,1.58-.95A.752.752,0,0,0,8.39,2.64ZM4.35,5.52a.743.743,0,0,0-1.05.16A11.037,11.037,0,0,0,2.22,7.53a.757.757,0,0,0,.37,1,.87.87,0,0,0,.31.07.745.745,0,0,0,.68-.44,9.189,9.189,0,0,1,.94-1.6A.741.741,0,0,0,4.35,5.52ZM2.83,10.81a.751.751,0,0,0-1.49-.19A10.659,10.659,0,0,0,1.25,12c0,.26.01.51.03.77a.742.742,0,0,0,.74.69h.06a.749.749,0,0,0,.69-.8c-.01-.22-.02-.44-.02-.66A9.514,9.514,0,0,1,2.83,10.81ZM4.22,17a8.757,8.757,0,0,1-.84-1.64.75.75,0,0,0-1.4.54,10.434,10.434,0,0,0,.98,1.91.737.737,0,0,0,1.03.23A.758.758,0,0,0,4.22,17Zm3.35,3.12a10.048,10.048,0,0,1-1.53-1.04.745.745,0,0,0-.96,1.14,10.9,10.9,0,0,0,1.77,1.22.745.745,0,0,0,1.01-.3A.75.75,0,0,0,7.57,20.12ZM12,21.25a9.409,9.409,0,0,1-1.84-.18.749.749,0,1,0-.29,1.47,10.76,10.76,0,0,0,2.13.21.75.75,0,0,0,0-1.5Z"></path>
  <path d="M12,22.75a.75.75,0,0,1,0-1.5,9.25,9.25,0,0,0,0-18.5.75.75,0,0,1,0-1.5,10.75,10.75,0,0,1,0,21.5Z"></path>
  <path d="M12,4a8,8,0,1,0,8,8A8,8,0,0,0,12,4Zm2.67,9.34a.753.753,0,0,1-.67.41.844.844,0,0,1-.34-.08l-2-1a.76.76,0,0,1-.41-.67V8a.75.75,0,0,1,1.5,0v3.54l1.59.79A.745.745,0,0,1,14.67,13.34Z"></path>
</svg>
